<mxfile host="app.diagrams.net" modified="2022-05-09T21:35:22.579Z" agent="5.0 (Windows NT 10.0; Win64; x64) AppleWebKit/537.36 (KHTML, like Gecko) Chrome/100.0.4896.127 Safari/537.36" etag="smfCAY0o3WvpjyK0AYin" version="18.0.2" type="github">
  <diagram id="C5RBs43oDa-KdzZeNtuy" name="Page-1">
    <mxGraphModel dx="2500" dy="934" grid="1" gridSize="10" guides="1" tooltips="1" connect="1" arrows="1" fold="1" page="1" pageScale="1" pageWidth="827" pageHeight="1169" math="0" shadow="0">
      <root>
        <mxCell id="WIyWlLk6GJQsqaUBKTNV-0" />
        <mxCell id="WIyWlLk6GJQsqaUBKTNV-1" parent="WIyWlLk6GJQsqaUBKTNV-0" />
        <mxCell id="uw-3SkWvDOImLK82JJSa-34" style="edgeStyle=orthogonalEdgeStyle;rounded=0;orthogonalLoop=1;jettySize=auto;html=1;entryX=0.5;entryY=0;entryDx=0;entryDy=0;entryPerimeter=0;" edge="1" parent="WIyWlLk6GJQsqaUBKTNV-1" source="zkfFHV4jXpPFQw0GAbJ--0" target="uw-3SkWvDOImLK82JJSa-33">
          <mxGeometry relative="1" as="geometry" />
        </mxCell>
        <mxCell id="zkfFHV4jXpPFQw0GAbJ--0" value="User" style="swimlane;fontStyle=2;align=center;verticalAlign=top;childLayout=stackLayout;horizontal=1;startSize=26;horizontalStack=0;resizeParent=1;resizeLast=0;collapsible=1;marginBottom=0;rounded=0;shadow=0;strokeWidth=1;" parent="WIyWlLk6GJQsqaUBKTNV-1" vertex="1">
          <mxGeometry x="20" y="50" width="170" height="20" as="geometry">
            <mxRectangle x="230" y="140" width="160" height="26" as="alternateBounds" />
          </mxGeometry>
        </mxCell>
        <mxCell id="uw-3SkWvDOImLK82JJSa-84" style="edgeStyle=orthogonalEdgeStyle;rounded=0;orthogonalLoop=1;jettySize=auto;html=1;entryX=0;entryY=0.5;entryDx=0;entryDy=0;exitX=0.5;exitY=0;exitDx=0;exitDy=0;" edge="1" parent="WIyWlLk6GJQsqaUBKTNV-1" source="zkfFHV4jXpPFQw0GAbJ--6" target="zkfFHV4jXpPFQw0GAbJ--18">
          <mxGeometry relative="1" as="geometry" />
        </mxCell>
        <mxCell id="zkfFHV4jXpPFQw0GAbJ--6" value="GameObj" style="swimlane;fontStyle=0;align=center;verticalAlign=top;childLayout=stackLayout;horizontal=1;startSize=26;horizontalStack=0;resizeParent=1;resizeLast=0;collapsible=1;marginBottom=0;rounded=0;shadow=0;strokeWidth=1;" parent="WIyWlLk6GJQsqaUBKTNV-1" vertex="1">
          <mxGeometry x="334" y="350" width="160" height="190" as="geometry">
            <mxRectangle x="130" y="380" width="160" height="26" as="alternateBounds" />
          </mxGeometry>
        </mxCell>
        <mxCell id="zkfFHV4jXpPFQw0GAbJ--7" value="Location(in window)" style="text;align=left;verticalAlign=top;spacingLeft=4;spacingRight=4;overflow=hidden;rotatable=0;points=[[0,0.5],[1,0.5]];portConstraint=eastwest;" parent="zkfFHV4jXpPFQw0GAbJ--6" vertex="1">
          <mxGeometry y="26" width="160" height="26" as="geometry" />
        </mxCell>
        <mxCell id="zkfFHV4jXpPFQw0GAbJ--8" value="Sprite" style="text;align=left;verticalAlign=top;spacingLeft=4;spacingRight=4;overflow=hidden;rotatable=0;points=[[0,0.5],[1,0.5]];portConstraint=eastwest;rounded=0;shadow=0;html=0;" parent="zkfFHV4jXpPFQw0GAbJ--6" vertex="1">
          <mxGeometry y="52" width="160" height="26" as="geometry" />
        </mxCell>
        <mxCell id="uw-3SkWvDOImLK82JJSa-38" value="SpriteMap (CharObj(,))&#xa;" style="text;align=left;verticalAlign=top;spacingLeft=4;spacingRight=4;overflow=hidden;rotatable=0;points=[[0,0.5],[1,0.5]];portConstraint=eastwest;rounded=0;shadow=0;html=0;" vertex="1" parent="zkfFHV4jXpPFQw0GAbJ--6">
          <mxGeometry y="78" width="160" height="26" as="geometry" />
        </mxCell>
        <mxCell id="uw-3SkWvDOImLK82JJSa-39" value="Old Location (Boolean(,))" style="text;align=left;verticalAlign=top;spacingLeft=4;spacingRight=4;overflow=hidden;rotatable=0;points=[[0,0.5],[1,0.5]];portConstraint=eastwest;rounded=0;shadow=0;html=0;" vertex="1" parent="zkfFHV4jXpPFQw0GAbJ--6">
          <mxGeometry y="104" width="160" height="26" as="geometry" />
        </mxCell>
        <mxCell id="zkfFHV4jXpPFQw0GAbJ--9" value="" style="line;html=1;strokeWidth=1;align=left;verticalAlign=middle;spacingTop=-1;spacingLeft=3;spacingRight=3;rotatable=0;labelPosition=right;points=[];portConstraint=eastwest;" parent="zkfFHV4jXpPFQw0GAbJ--6" vertex="1">
          <mxGeometry y="130" width="160" height="8" as="geometry" />
        </mxCell>
        <mxCell id="uw-3SkWvDOImLK82JJSa-32" style="edgeStyle=orthogonalEdgeStyle;rounded=0;orthogonalLoop=1;jettySize=auto;html=1;entryX=1;entryY=0.5;entryDx=0;entryDy=0;" edge="1" parent="WIyWlLk6GJQsqaUBKTNV-1" source="uw-3SkWvDOImLK82JJSa-0" target="uw-3SkWvDOImLK82JJSa-28">
          <mxGeometry relative="1" as="geometry" />
        </mxCell>
        <mxCell id="uw-3SkWvDOImLK82JJSa-0" value="Engine" style="swimlane;fontStyle=0;childLayout=stackLayout;horizontal=1;startSize=26;horizontalStack=0;resizeParent=1;resizeParentMax=0;resizeLast=0;collapsible=1;marginBottom=0;align=center;fontSize=14;swimlaneLine=1;" vertex="1" parent="WIyWlLk6GJQsqaUBKTNV-1">
          <mxGeometry x="205" y="165" width="170" height="46" as="geometry" />
        </mxCell>
        <mxCell id="uw-3SkWvDOImLK82JJSa-36" value="Holds while loop&lt;br&gt;" style="text;html=1;align=center;verticalAlign=middle;resizable=0;points=[];autosize=1;strokeColor=none;fillColor=none;" vertex="1" parent="uw-3SkWvDOImLK82JJSa-0">
          <mxGeometry y="26" width="170" height="20" as="geometry" />
        </mxCell>
        <mxCell id="uw-3SkWvDOImLK82JJSa-31" style="edgeStyle=orthogonalEdgeStyle;rounded=0;orthogonalLoop=1;jettySize=auto;html=1;entryX=1;entryY=0.5;entryDx=0;entryDy=0;" edge="1" parent="WIyWlLk6GJQsqaUBKTNV-1" source="uw-3SkWvDOImLK82JJSa-28" target="zkfFHV4jXpPFQw0GAbJ--0">
          <mxGeometry relative="1" as="geometry" />
        </mxCell>
        <mxCell id="uw-3SkWvDOImLK82JJSa-28" value="readable screen" style="text;strokeColor=none;fillColor=none;spacingLeft=4;spacingRight=4;overflow=hidden;rotatable=0;points=[[0,0.5],[1,0.5]];portConstraint=eastwest;fontSize=12;" vertex="1" parent="WIyWlLk6GJQsqaUBKTNV-1">
          <mxGeometry x="240" y="50" width="100" height="30" as="geometry" />
        </mxCell>
        <mxCell id="uw-3SkWvDOImLK82JJSa-35" style="edgeStyle=orthogonalEdgeStyle;rounded=0;orthogonalLoop=1;jettySize=auto;html=1;entryX=0;entryY=0.25;entryDx=0;entryDy=0;" edge="1" parent="WIyWlLk6GJQsqaUBKTNV-1" source="uw-3SkWvDOImLK82JJSa-33" target="uw-3SkWvDOImLK82JJSa-0">
          <mxGeometry relative="1" as="geometry" />
        </mxCell>
        <mxCell id="uw-3SkWvDOImLK82JJSa-33" value="Keyboard actions" style="text;strokeColor=none;fillColor=none;spacingLeft=4;spacingRight=4;overflow=hidden;rotatable=0;points=[[0,0.5],[1,0.5]];portConstraint=eastwest;fontSize=12;" vertex="1" parent="WIyWlLk6GJQsqaUBKTNV-1">
          <mxGeometry x="10" y="135" width="110" height="30" as="geometry" />
        </mxCell>
        <mxCell id="uw-3SkWvDOImLK82JJSa-41" value="SpriteSheet" style="swimlane;fontStyle=0;childLayout=stackLayout;horizontal=1;startSize=26;horizontalStack=0;resizeParent=1;resizeParentMax=0;resizeLast=0;collapsible=1;marginBottom=0;align=center;fontSize=14;" vertex="1" parent="WIyWlLk6GJQsqaUBKTNV-1">
          <mxGeometry x="45" y="390" width="160" height="126" as="geometry" />
        </mxCell>
        <mxCell id="uw-3SkWvDOImLK82JJSa-43" value="Animations" style="text;strokeColor=none;fillColor=none;spacingLeft=4;spacingRight=4;overflow=hidden;rotatable=0;points=[[0,0.5],[1,0.5]];portConstraint=eastwest;fontSize=12;" vertex="1" parent="uw-3SkWvDOImLK82JJSa-41">
          <mxGeometry y="26" width="160" height="30" as="geometry" />
        </mxCell>
        <mxCell id="uw-3SkWvDOImLK82JJSa-44" value="Prior Animation + Frame#" style="text;strokeColor=none;fillColor=none;spacingLeft=4;spacingRight=4;overflow=hidden;rotatable=0;points=[[0,0.5],[1,0.5]];portConstraint=eastwest;fontSize=12;" vertex="1" parent="uw-3SkWvDOImLK82JJSa-41">
          <mxGeometry y="56" width="160" height="30" as="geometry" />
        </mxCell>
        <mxCell id="uw-3SkWvDOImLK82JJSa-116" value="" style="line;strokeWidth=1;html=1;perimeter=backbonePerimeter;points=[];outlineConnect=0;sketch=0;" vertex="1" parent="uw-3SkWvDOImLK82JJSa-41">
          <mxGeometry y="86" width="160" height="10" as="geometry" />
        </mxCell>
        <mxCell id="uw-3SkWvDOImLK82JJSa-117" value="List Item" style="text;strokeColor=none;fillColor=none;align=left;verticalAlign=middle;spacingLeft=4;spacingRight=4;overflow=hidden;points=[[0,0.5],[1,0.5]];portConstraint=eastwest;rotatable=0;sketch=0;" vertex="1" parent="uw-3SkWvDOImLK82JJSa-41">
          <mxGeometry y="96" width="160" height="30" as="geometry" />
        </mxCell>
        <mxCell id="uw-3SkWvDOImLK82JJSa-47" value="SpriteSheet.json" style="ellipse" vertex="1" parent="WIyWlLk6GJQsqaUBKTNV-1">
          <mxGeometry x="20" y="270" width="100" height="40" as="geometry" />
        </mxCell>
        <mxCell id="uw-3SkWvDOImLK82JJSa-49" value="" style="edgeStyle=elbowEdgeStyle;elbow=horizontal;entryX=0.15;entryY=-0.026;entryDx=0;entryDy=0;entryPerimeter=0;" edge="1" source="uw-3SkWvDOImLK82JJSa-47" target="uw-3SkWvDOImLK82JJSa-41" parent="WIyWlLk6GJQsqaUBKTNV-1">
          <mxGeometry relative="1" as="geometry" />
        </mxCell>
        <mxCell id="uw-3SkWvDOImLK82JJSa-59" style="edgeStyle=orthogonalEdgeStyle;rounded=0;orthogonalLoop=1;jettySize=auto;html=1;entryX=0.5;entryY=0;entryDx=0;entryDy=0;" edge="1" parent="WIyWlLk6GJQsqaUBKTNV-1" source="zkfFHV4jXpPFQw0GAbJ--8" target="uw-3SkWvDOImLK82JJSa-41">
          <mxGeometry relative="1" as="geometry" />
        </mxCell>
        <mxCell id="uw-3SkWvDOImLK82JJSa-65" value="" style="endArrow=classic;html=1;rounded=0;exitX=1;exitY=0.5;exitDx=0;exitDy=0;entryX=0;entryY=0.5;entryDx=0;entryDy=0;" edge="1" parent="WIyWlLk6GJQsqaUBKTNV-1" source="uw-3SkWvDOImLK82JJSa-43" target="uw-3SkWvDOImLK82JJSa-38">
          <mxGeometry relative="1" as="geometry">
            <mxPoint x="450" y="640" as="sourcePoint" />
            <mxPoint x="550" y="640" as="targetPoint" />
          </mxGeometry>
        </mxCell>
        <mxCell id="uw-3SkWvDOImLK82JJSa-66" value="Creates" style="edgeLabel;resizable=0;html=1;align=center;verticalAlign=middle;sketch=0;" connectable="0" vertex="1" parent="uw-3SkWvDOImLK82JJSa-65">
          <mxGeometry relative="1" as="geometry" />
        </mxCell>
        <mxCell id="uw-3SkWvDOImLK82JJSa-72" value="" style="endArrow=classic;html=1;rounded=0;exitX=0;exitY=0.5;exitDx=0;exitDy=0;entryX=0.5;entryY=0;entryDx=0;entryDy=0;" edge="1" parent="WIyWlLk6GJQsqaUBKTNV-1" source="uw-3SkWvDOImLK82JJSa-43" target="uw-3SkWvDOImLK82JJSa-74">
          <mxGeometry relative="1" as="geometry">
            <mxPoint x="260" y="431" as="sourcePoint" />
            <mxPoint y="430" as="targetPoint" />
            <Array as="points">
              <mxPoint x="20" y="390" />
              <mxPoint x="-50" y="390" />
            </Array>
          </mxGeometry>
        </mxCell>
        <mxCell id="uw-3SkWvDOImLK82JJSa-73" value="Li" style="edgeLabel;resizable=0;html=1;align=center;verticalAlign=middle;sketch=0;" connectable="0" vertex="1" parent="uw-3SkWvDOImLK82JJSa-72">
          <mxGeometry relative="1" as="geometry" />
        </mxCell>
        <mxCell id="uw-3SkWvDOImLK82JJSa-85" value="Text" style="edgeLabel;html=1;align=center;verticalAlign=middle;resizable=0;points=[];" vertex="1" connectable="0" parent="uw-3SkWvDOImLK82JJSa-72">
          <mxGeometry x="-0.0572" y="-3" relative="1" as="geometry">
            <mxPoint as="offset" />
          </mxGeometry>
        </mxCell>
        <mxCell id="uw-3SkWvDOImLK82JJSa-74" value="Frame" style="swimlane;fontStyle=0;childLayout=stackLayout;horizontal=1;startSize=30;horizontalStack=0;resizeParent=1;resizeParentMax=0;resizeLast=0;collapsible=1;marginBottom=0;sketch=0;" vertex="1" parent="WIyWlLk6GJQsqaUBKTNV-1">
          <mxGeometry x="-150" y="410" width="140" height="190" as="geometry" />
        </mxCell>
        <mxCell id="uw-3SkWvDOImLK82JJSa-75" value="Characters" style="text;strokeColor=none;fillColor=none;align=left;verticalAlign=middle;spacingLeft=4;spacingRight=4;overflow=hidden;points=[[0,0.5],[1,0.5]];portConstraint=eastwest;rotatable=0;sketch=0;" vertex="1" parent="uw-3SkWvDOImLK82JJSa-74">
          <mxGeometry y="30" width="140" height="30" as="geometry" />
        </mxCell>
        <mxCell id="uw-3SkWvDOImLK82JJSa-76" value="Colours" style="text;strokeColor=none;fillColor=none;align=left;verticalAlign=middle;spacingLeft=4;spacingRight=4;overflow=hidden;points=[[0,0.5],[1,0.5]];portConstraint=eastwest;rotatable=0;sketch=0;" vertex="1" parent="uw-3SkWvDOImLK82JJSa-74">
          <mxGeometry y="60" width="140" height="30" as="geometry" />
        </mxCell>
        <mxCell id="uw-3SkWvDOImLK82JJSa-77" value="Background colours" style="text;strokeColor=none;fillColor=none;align=left;verticalAlign=middle;spacingLeft=4;spacingRight=4;overflow=hidden;points=[[0,0.5],[1,0.5]];portConstraint=eastwest;rotatable=0;sketch=0;" vertex="1" parent="uw-3SkWvDOImLK82JJSa-74">
          <mxGeometry y="90" width="140" height="30" as="geometry" />
        </mxCell>
        <mxCell id="uw-3SkWvDOImLK82JJSa-80" value="Type of CharObj" style="text;strokeColor=none;fillColor=none;spacingLeft=4;spacingRight=4;overflow=hidden;rotatable=0;points=[[0,0.5],[1,0.5]];portConstraint=eastwest;fontSize=12;sketch=0;" vertex="1" parent="uw-3SkWvDOImLK82JJSa-74">
          <mxGeometry y="120" width="140" height="30" as="geometry" />
        </mxCell>
        <mxCell id="uw-3SkWvDOImLK82JJSa-82" value="Render()&#xa;Returns CharObj(,)" style="text;strokeColor=default;fillColor=none;spacingLeft=4;spacingRight=4;overflow=hidden;rotatable=0;points=[[0,0.5],[1,0.5]];portConstraint=eastwest;fontSize=12;sketch=0;" vertex="1" parent="uw-3SkWvDOImLK82JJSa-74">
          <mxGeometry y="150" width="140" height="40" as="geometry" />
        </mxCell>
        <mxCell id="uw-3SkWvDOImLK82JJSa-125" style="edgeStyle=orthogonalEdgeStyle;rounded=0;orthogonalLoop=1;jettySize=auto;html=1;exitX=1;exitY=0.25;exitDx=0;exitDy=0;entryX=0;entryY=0.5;entryDx=0;entryDy=0;" edge="1" parent="WIyWlLk6GJQsqaUBKTNV-1" source="uw-3SkWvDOImLK82JJSa-87" target="uw-3SkWvDOImLK82JJSa-88">
          <mxGeometry relative="1" as="geometry" />
        </mxCell>
        <mxCell id="uw-3SkWvDOImLK82JJSa-87" value="LocationManager" style="swimlane;fontStyle=0;childLayout=stackLayout;horizontal=1;startSize=30;horizontalStack=0;resizeParent=1;resizeParentMax=0;resizeLast=0;collapsible=1;marginBottom=0;sketch=0;strokeColor=default;" vertex="1" parent="WIyWlLk6GJQsqaUBKTNV-1">
          <mxGeometry x="780" y="270" width="140" height="160" as="geometry" />
        </mxCell>
        <mxCell id="uw-3SkWvDOImLK82JJSa-115" value="List Item" style="text;strokeColor=none;fillColor=none;align=left;verticalAlign=middle;spacingLeft=4;spacingRight=4;overflow=hidden;points=[[0,0.5],[1,0.5]];portConstraint=eastwest;rotatable=0;sketch=0;" vertex="1" parent="uw-3SkWvDOImLK82JJSa-87">
          <mxGeometry y="30" width="140" height="30" as="geometry" />
        </mxCell>
        <mxCell id="uw-3SkWvDOImLK82JJSa-119" value="" style="line;strokeWidth=1;html=1;sketch=0;" vertex="1" parent="uw-3SkWvDOImLK82JJSa-87">
          <mxGeometry y="60" width="140" height="10" as="geometry" />
        </mxCell>
        <mxCell id="uw-3SkWvDOImLK82JJSa-126" value="Add(GameObj)" style="text;strokeColor=none;fillColor=none;align=left;verticalAlign=middle;spacingLeft=4;spacingRight=4;overflow=hidden;points=[[0,0.5],[1,0.5]];portConstraint=eastwest;rotatable=0;sketch=0;" vertex="1" parent="uw-3SkWvDOImLK82JJSa-87">
          <mxGeometry y="70" width="140" height="30" as="geometry" />
        </mxCell>
        <mxCell id="uw-3SkWvDOImLK82JJSa-120" value="Remove(GameObj)" style="text;strokeColor=none;fillColor=none;align=left;verticalAlign=middle;spacingLeft=4;spacingRight=4;overflow=hidden;points=[[0,0.5],[1,0.5]];portConstraint=eastwest;rotatable=0;sketch=0;" vertex="1" parent="uw-3SkWvDOImLK82JJSa-87">
          <mxGeometry y="100" width="140" height="30" as="geometry" />
        </mxCell>
        <mxCell id="uw-3SkWvDOImLK82JJSa-130" value="RenderScreen()" style="text;strokeColor=none;fillColor=none;align=left;verticalAlign=middle;spacingLeft=4;spacingRight=4;overflow=hidden;points=[[0,0.5],[1,0.5]];portConstraint=eastwest;rotatable=0;sketch=0;" vertex="1" parent="uw-3SkWvDOImLK82JJSa-87">
          <mxGeometry y="130" width="140" height="30" as="geometry" />
        </mxCell>
        <mxCell id="uw-3SkWvDOImLK82JJSa-92" value="LocationObj" style="swimlane;fontStyle=0;childLayout=stackLayout;horizontal=1;startSize=30;horizontalStack=0;resizeParent=1;resizeParentMax=0;resizeLast=0;collapsible=1;marginBottom=0;sketch=0;strokeColor=default;" vertex="1" parent="WIyWlLk6GJQsqaUBKTNV-1">
          <mxGeometry x="1150" y="430" width="200" height="190" as="geometry" />
        </mxCell>
        <mxCell id="uw-3SkWvDOImLK82JJSa-95" value="What string is being printed" style="text;strokeColor=none;fillColor=none;align=left;verticalAlign=middle;spacingLeft=4;spacingRight=4;overflow=hidden;points=[[0,0.5],[1,0.5]];portConstraint=eastwest;rotatable=0;sketch=0;" vertex="1" parent="uw-3SkWvDOImLK82JJSa-92">
          <mxGeometry y="30" width="200" height="30" as="geometry" />
        </mxCell>
        <mxCell id="uw-3SkWvDOImLK82JJSa-112" style="edgeStyle=orthogonalEdgeStyle;rounded=0;orthogonalLoop=1;jettySize=auto;html=1;entryX=0;entryY=0.5;entryDx=0;entryDy=0;" edge="1" parent="uw-3SkWvDOImLK82JJSa-92" source="uw-3SkWvDOImLK82JJSa-93" target="uw-3SkWvDOImLK82JJSa-104">
          <mxGeometry relative="1" as="geometry" />
        </mxCell>
        <mxCell id="uw-3SkWvDOImLK82JJSa-113" style="edgeStyle=orthogonalEdgeStyle;rounded=0;orthogonalLoop=1;jettySize=auto;html=1;entryX=0;entryY=0.5;entryDx=0;entryDy=0;" edge="1" parent="uw-3SkWvDOImLK82JJSa-92" source="uw-3SkWvDOImLK82JJSa-93" target="uw-3SkWvDOImLK82JJSa-105">
          <mxGeometry relative="1" as="geometry" />
        </mxCell>
        <mxCell id="uw-3SkWvDOImLK82JJSa-93" value="List of CharObjs" style="text;strokeColor=none;fillColor=none;align=left;verticalAlign=middle;spacingLeft=4;spacingRight=4;overflow=hidden;points=[[0,0.5],[1,0.5]];portConstraint=eastwest;rotatable=0;sketch=0;" vertex="1" parent="uw-3SkWvDOImLK82JJSa-92">
          <mxGeometry y="60" width="200" height="30" as="geometry" />
        </mxCell>
        <mxCell id="uw-3SkWvDOImLK82JJSa-101" value="" style="line;strokeWidth=1;html=1;sketch=0;" vertex="1" parent="uw-3SkWvDOImLK82JJSa-92">
          <mxGeometry y="90" width="200" height="10" as="geometry" />
        </mxCell>
        <mxCell id="uw-3SkWvDOImLK82JJSa-102" value="AddCharObj(CharObj)" style="text;strokeColor=none;fillColor=none;align=left;verticalAlign=middle;spacingLeft=4;spacingRight=4;overflow=hidden;points=[[0,0.5],[1,0.5]];portConstraint=eastwest;rotatable=0;sketch=0;" vertex="1" parent="uw-3SkWvDOImLK82JJSa-92">
          <mxGeometry y="100" width="200" height="30" as="geometry" />
        </mxCell>
        <mxCell id="uw-3SkWvDOImLK82JJSa-104" value="RemoveCharObj(ParentGameObj)" style="text;strokeColor=none;fillColor=none;align=left;verticalAlign=middle;spacingLeft=4;spacingRight=4;overflow=hidden;points=[[0,0.5],[1,0.5]];portConstraint=eastwest;rotatable=0;sketch=0;" vertex="1" parent="uw-3SkWvDOImLK82JJSa-92">
          <mxGeometry y="130" width="200" height="30" as="geometry" />
        </mxCell>
        <mxCell id="uw-3SkWvDOImLK82JJSa-105" value="UpdatePrinted()" style="text;strokeColor=none;fillColor=none;align=left;verticalAlign=middle;spacingLeft=4;spacingRight=4;overflow=hidden;points=[[0,0.5],[1,0.5]];portConstraint=eastwest;rotatable=0;sketch=0;" vertex="1" parent="uw-3SkWvDOImLK82JJSa-92">
          <mxGeometry y="160" width="200" height="30" as="geometry" />
        </mxCell>
        <mxCell id="uw-3SkWvDOImLK82JJSa-111" style="edgeStyle=orthogonalEdgeStyle;rounded=0;orthogonalLoop=1;jettySize=auto;html=1;exitX=1;exitY=0.5;exitDx=0;exitDy=0;entryX=1;entryY=0.5;entryDx=0;entryDy=0;" edge="1" parent="uw-3SkWvDOImLK82JJSa-92" source="uw-3SkWvDOImLK82JJSa-105" target="uw-3SkWvDOImLK82JJSa-95">
          <mxGeometry relative="1" as="geometry">
            <mxPoint x="220" y="50" as="targetPoint" />
          </mxGeometry>
        </mxCell>
        <mxCell id="zkfFHV4jXpPFQw0GAbJ--18" value="List of Active GameObjs" style="text;align=left;verticalAlign=top;spacingLeft=4;spacingRight=4;overflow=hidden;rotatable=0;points=[[0,0.5],[1,0.5]];portConstraint=eastwest;" parent="WIyWlLk6GJQsqaUBKTNV-1" vertex="1">
          <mxGeometry x="550" y="250" width="160" height="26" as="geometry" />
        </mxCell>
        <mxCell id="uw-3SkWvDOImLK82JJSa-123" style="edgeStyle=orthogonalEdgeStyle;rounded=0;orthogonalLoop=1;jettySize=auto;html=1;entryX=0.5;entryY=0;entryDx=0;entryDy=0;exitX=1;exitY=0.5;exitDx=0;exitDy=0;" edge="1" parent="WIyWlLk6GJQsqaUBKTNV-1" source="uw-3SkWvDOImLK82JJSa-88" target="uw-3SkWvDOImLK82JJSa-92">
          <mxGeometry relative="1" as="geometry" />
        </mxCell>
        <mxCell id="uw-3SkWvDOImLK82JJSa-88" value="LocationObJArray" style="text;strokeColor=none;fillColor=none;align=left;verticalAlign=middle;spacingLeft=4;spacingRight=4;overflow=hidden;points=[[0,0.5],[1,0.5]];portConstraint=eastwest;rotatable=0;sketch=0;" vertex="1" parent="WIyWlLk6GJQsqaUBKTNV-1">
          <mxGeometry x="1060" y="265" width="120" height="50" as="geometry" />
        </mxCell>
        <mxCell id="uw-3SkWvDOImLK82JJSa-127" style="edgeStyle=orthogonalEdgeStyle;rounded=0;orthogonalLoop=1;jettySize=auto;html=1;entryX=0.014;entryY=0.787;entryDx=0;entryDy=0;entryPerimeter=0;" edge="1" parent="WIyWlLk6GJQsqaUBKTNV-1" source="uw-3SkWvDOImLK82JJSa-126" target="uw-3SkWvDOImLK82JJSa-88">
          <mxGeometry relative="1" as="geometry" />
        </mxCell>
        <mxCell id="uw-3SkWvDOImLK82JJSa-129" style="edgeStyle=orthogonalEdgeStyle;rounded=0;orthogonalLoop=1;jettySize=auto;html=1;entryX=-0.011;entryY=0.918;entryDx=0;entryDy=0;entryPerimeter=0;" edge="1" parent="WIyWlLk6GJQsqaUBKTNV-1" source="uw-3SkWvDOImLK82JJSa-120" target="uw-3SkWvDOImLK82JJSa-88">
          <mxGeometry relative="1" as="geometry">
            <Array as="points">
              <mxPoint x="1000" y="385" />
              <mxPoint x="1000" y="346" />
            </Array>
          </mxGeometry>
        </mxCell>
        <mxCell id="uw-3SkWvDOImLK82JJSa-132" style="edgeStyle=orthogonalEdgeStyle;rounded=0;orthogonalLoop=1;jettySize=auto;html=1;entryX=0.476;entryY=1.027;entryDx=0;entryDy=0;entryPerimeter=0;endArrow=classic;endFill=1;startArrow=classic;startFill=1;" edge="1" parent="WIyWlLk6GJQsqaUBKTNV-1" source="uw-3SkWvDOImLK82JJSa-130" target="uw-3SkWvDOImLK82JJSa-88">
          <mxGeometry relative="1" as="geometry">
            <Array as="points">
              <mxPoint x="1117" y="415" />
            </Array>
          </mxGeometry>
        </mxCell>
      </root>
    </mxGraphModel>
  </diagram>
</mxfile>
